<?xml version="1.0" encoding="UTF-8"?>
<!-- Uploaded to: SVG Find, www.svgrepo.com, Generator: SVG Find Mixer Tools -->
<svg fill="#000000" width="800px" height="800px" version="1.1" viewBox="144 144 512 512" xmlns="http://www.w3.org/2000/svg">
 <g>
  <path d="m402.6 509.22c-13.699-5.0781-18.223-7.8711-18.027-13.816 0.089844-4.0898 2.5039-7.7695 6.2188-9.4844 8.2695-3.6133 17.809-2.7969 25.348 2.1641 1.7617 1.2891 3.9844 1.7891 6.1289 1.3789 2.1484-0.41406 4.0273-1.6992 5.1875-3.5508 1.1602-1.8516 1.5-4.1016 0.9375-6.2109-0.56641-2.1133-1.9805-3.8945-3.9102-4.9219-5.0625-3.1875-10.707-5.3281-16.609-6.2969v-11.531c0-4.3477-3.5234-7.8711-7.8711-7.8711s-7.875 3.5234-7.875 7.8711v11.809c-3.0391 0.66797-5.9766 1.7422-8.7383 3.1875-4.2617 2.1445-7.8633 5.4023-10.426 9.4297-2.5664 4.0234-3.9922 8.668-4.1367 13.438-0.55078 18.344 16.137 24.52 28.301 29.047 14.801 5.5117 19.285 8.3828 18.578 15.742v0.003906c-0.31641 5.0117-3.5781 9.3594-8.3047 11.059-8.6055 3.2812-18.238 2.4727-26.176-2.2031-3.4102-2.6953-8.3633-2.1133-11.059 1.3008-2.6953 3.4102-2.1133 8.3633 1.2969 11.059 6.0508 4.375 13.215 6.9531 20.664 7.4375v10.945c0 4.3438 3.5273 7.8711 7.875 7.8711s7.8711-3.5273 7.8711-7.8711v-12.086c1.9453-0.46875 3.8555-1.0859 5.707-1.8477 4.9414-1.9141 9.2422-5.1836 12.406-9.4297 3.168-4.2461 5.0742-9.3008 5.5039-14.582 1.8867-20.625-15.746-27.117-28.891-32.039z"/>
  <path d="m559.68 446.01c14.488-26.094 21.855-55.535 21.371-85.375 0-48.016-19.074-94.07-53.031-128.02-33.953-33.957-80.004-53.031-128.02-53.031s-94.074 19.074-128.03 53.031c-33.957 33.953-53.031 80.008-53.031 128.02-0.066406 27.598 6.2539 54.836 18.461 79.586 13.027 22.754 50.891 70.379 60.262 80.965 0 36.562 19.504 70.348 51.168 88.625 31.66 18.281 70.672 18.281 102.34 0 31.66-18.277 51.168-52.062 51.168-88.625 8.7773-9.8008 40.855-46.207 57.348-75.176zm-151.81-29.953v-31.488c13.164-17.086 32.902-27.855 54.398-29.68 21.492-1.8203 42.762 5.4727 58.617 20.098 15.852 14.629 24.832 35.242 24.746 56.812-0.011718 2.7617-0.18359 5.5234-0.51172 8.2656-9.1328 17.121-30.977 43.414-44.559 59.238-4.1641-22.129-15.5-42.27-32.25-57.316-16.754-15.047-37.996-24.16-60.441-25.93zm-108.44 83.129c-14.641-17.004-38.496-46.09-46.84-63.566 0-1.3789-0.19531-2.7539-0.19531-3.9375-0.0625-21.941 9.2461-42.867 25.59-57.508s38.16-21.605 59.965-19.137c21.805 2.4648 41.516 14.129 54.172 32.051v28.969c-22.43 1.7656-43.656 10.859-60.406 25.883-16.754 15.023-28.098 35.137-32.285 57.246zm100.57-303.86c34.445 0.007812 68.031 10.777 96.059 30.801 28.031 20.023 49.102 48.305 60.277 80.891 11.172 32.582 11.891 67.844 2.0469 100.86-5.7031-21.824-19.172-40.816-37.879-53.418-18.707-12.602-41.367-17.945-63.734-15.031-22.367 2.9141-42.902 13.887-57.754 30.859-14.594-16.672-34.676-27.566-56.609-30.703s-44.262 1.6914-62.941 13.605c-18.68 11.918-32.473 30.129-38.875 51.34-8.9727-32.832-7.6094-67.629 3.9062-99.66 11.516-32.027 32.621-59.73 60.449-79.332 27.824-19.602 61.016-30.148 95.055-30.207zm0 409.34v0.003906c-22.969 0-44.992-9.125-61.23-25.363-16.238-16.238-25.363-38.266-25.363-61.23s9.125-44.988 25.363-61.23c16.238-16.238 38.262-25.359 61.23-25.359 22.965 0 44.988 9.1211 61.227 25.359 16.242 16.242 25.363 38.266 25.363 61.23s-9.1211 44.992-25.363 61.23c-16.238 16.238-38.262 25.363-61.227 25.363z"/>
 </g>
</svg>